PathFileType	4	(X/Y/Z)	..\data\2015002\dynamic\2015002_C4_04.trc
DataRate	CameraRate	NumFrames	NumMarkers	Units	OrigDataRate	OrigDataStartFrame	OrigNumFrames
100.000000	100.000000	4	52	mm	100.000000	63	168
Frame#	Time	L_IAS			L_IPS			R_IPS			R_IAS			L_FTC			L_FLE			L_FME			L_FAX			L_TTC			L_FAL			L_TAM			L_FCC			L_FM1			L_FM2			L_FM5			R_FTC			R_FLE			R_FME			R_FAX			R_TTC			R_FAL			R_TAM			R_FCC			R_FM1			R_FM2			R_FM5			CV7			TV10			SXS			SJN			L_SIA			L_SRS			L_SAA			L_SAE			L_HLE			L_HME			L_UOA			L_RSP			L_UHE			L_HM2			L_HM5			R_SIA			R_SRS			R_SAA			R_SAE			R_HLE			R_HME			R_UOA			R_RSP			R_UHE			R_HM2			R_HM5			
		X1	Y1	Z1	X2	Y2	Z2	X3	Y3	Z3	X4	Y4	Z4	X5	Y5	Z5	X6	Y6	Z6	X7	Y7	Z7	X8	Y8	Z8	X9	Y9	Z9	X10	Y10	Z10	X11	Y11	Z11	X12	Y12	Z12	X13	Y13	Z13	X14	Y14	Z14	X15	Y15	Z15	X16	Y16	Z16	X17	Y17	Z17	X18	Y18	Z18	X19	Y19	Z19	X20	Y20	Z20	X21	Y21	Z21	X22	Y22	Z22	X23	Y23	Z23	X24	Y24	Z24	X25	Y25	Z25	X26	Y26	Z26	X27	Y27	Z27	X28	Y28	Z28	X29	Y29	Z29	X30	Y30	Z30	X31	Y31	Z31	X32	Y32	Z32	X33	Y33	Z33	X34	Y34	Z34	X35	Y35	Z35	X36	Y36	Z36	X37	Y37	Z37	X38	Y38	Z38	X39	Y39	Z39	X40	Y40	Z40	X41	Y41	Z41	X42	Y42	Z42	X43	Y43	Z43	X44	Y44	Z44	X45	Y45	Z45	X46	Y46	Z46	X47	Y47	Z47	X48	Y48	Z48	X49	Y49	Z49	X50	Y50	Z50	X51	Y51	Z51	X52	Y52	Z52	

64	0.63	528.5764160156251	951.325866699219	-374.7774353027344	338.9170837402344	957.6823730468752	-282.8565368652344	338.3398437500001	949.4688110351565	-184.649154663086	529.7128295898439	944.4031982421877	-120.5673522949219	441.272430419922	878.748474121094	-444.7081909179689	346.9194946289063	466.6277160644532	-423.8910522460939	344.2539367675782	464.7355346679689	-287.6310119628907	297.5297546386719	418.889129638672	-420.7688598632814	347.1279296875001	379.4247741699219	-362.8376159667969	101.8884735107422	118.4625244140625	-383.4299011230469	125.9196395874024	123.3285903930664	-292.6131591796876	25.60869216918946	92.35282135009767	-320.3782653808594	219.0015258789063	14.43155002593994	-299.4578857421876	226.3911285400391	33.03126907348634	-359.9355773925782	178.0827178955078	24.03834342956544	-415.8643493652345	482.8740539550782	852.4138183593752	-59.74253463745119	638.6794433593751	469.766326904297	-74.20195770263673	667.3306274414064	464.0067138671876	-203.4691772460938	637.0675659179689	412.7777709960939	-73.93356323242189	714.3762207031251	418.4078063964845	-115.691146850586	696.6887207031251	65.73009490966798	-102.3828964233399	743.6415405273439	91.33351898193361	-182.6586151123047	669.7268676757814	15.24039936065674	-173.2706604003907	875.3083496093752	41.03239440917969	-153.8908233642578	866.8906250000002	61.78009033203126	-100.2268447875977	810.2198486328127	30.17558288574219	-49.44506072998048	416.1261596679689	1444.365844726563	-232.754379272461	322.3611450195313	1195.77587890625	-241.4479980468751	575.0653686523439	1136.200561523438	-227.3986968994141	531.6763305664064	1344.093383789063	-225.0767059326172	331.0350646972657	1224.9140625	-358.2450866699219	359.4633483886719	1378.121948242188	-326.7385864257813	422.1755371093751	1382.669555664063	-413.5503845214845	479.3731384277345	1375.48193359375	-434.5565490722657	533.0814819335939	1081.942626953125	-524.0682373046876	493.241912841797	1045.055419921875	-456.6176147460939	516.8395385742189	1032.070068359375	-523.1961059570314	739.8227539062501	925.023376464844	-466.7760314941407	709.2128295898439	901.467712402344	-534.6943359375001	823.534851074219	871.1365966796877	-467.0899047851564	758.3220825195314	832.1279907226565	-540.4495849609376	311.3266601562501	1213.471313476563	-126.4039154052735	351.3471984863282	1367.003662109375	-133.922607421875	397.386444091797	1368.827026367188	-50.19795608520509	437.353485107422	1364.51513671875	-22.33856964111328	339.4916992187501	1071.048583984375	36.22943878173829	327.5776367187501	1057.636962890625	-54.05195236206056	293.4982299804688	1037.312866210938	2.39569091796875	389.634490966797	807.3017578125002	38.24910736083985	330.0286865234376	824.546325683594	86.10836029052736	385.4732055664064	704.5557861328126	67.87318420410158	297.6788330078126	753.4030151367189	97.54536437988284	
65	0.64	543.1086425781251	951.6586914062502	-371.7596435546876	353.0434875488282	957.9353637695315	-280.9717102050782	352.3101501464844	950.1448364257815	-182.6692352294922	543.6365356445314	946.1710205078127	-117.5660629272461	456.1936950683595	878.3015747070315	-442.1103515625001	364.3220520019532	466.000457763672	-424.0164489746095	362.6629638671876	462.9702453613282	-287.6925048828126	313.6533508300782	419.2073974609376	-420.6404418945314	363.0405578613282	378.2697753906251	-363.7399902343751	108.9856643676758	125.3850936889649	-383.4059143066407	133.6853485107422	128.484115600586	-292.7858581542969	32.44126892089844	103.330436706543	-319.7101135253907	218.3786163330079	13.9380578994751	-298.8472290039063	226.5577087402344	32.57418060302735	-359.2189941406251	179.3768615722657	26.11903381347657	-414.9284973144532	497.1274719238282	854.168151855469	-56.67457199096681	652.7955932617189	470.6863098144532	-71.59217071533205	681.6974487304689	465.4774780273439	-200.8512420654297	650.8900146484376	413.8466796875001	-71.47574615478517	727.8491821289064	418.044647216797	-113.6902618408203	698.8632812500001	65.36013793945314	-102.282829284668	746.2477416992189	89.58660125732423	-182.9371490478516	669.1846313476564	16.23384284973145	-173.2823486328125	876.4763793945315	34.36391067504884	-153.9581451416016	869.3374633789065	55.6507034301758	-99.86966705322268	810.825134277344	26.36810684204102	-48.72169876098634	429.4421691894532	1445.007934570313	-229.3975982666016	336.0285949707032	1196.257080078125	-239.3157043457032	588.9803466796876	1137.07421875	-224.1133117675782	545.1300659179689	1344.931030273438	-221.5559997558594	345.1530151367188	1225.763061523438	-356.0991516113282	373.2273864746094	1378.957641601563	-323.9202270507813	436.2714843750001	1383.829223632813	-410.4364318847657	493.5790100097657	1376.6533203125	-431.2608947753907	544.8474121093751	1082.607177734375	-520.7096557617189	505.9510192871095	1045.99169921875	-452.3227844238282	528.7197265625001	1032.642944335938	-519.3548583984376	752.7808227539064	926.392028808594	-465.1590270996095	721.2373657226564	902.1004028320315	-532.3748779296876	837.0461425781252	873.4683837890627	-466.7274475097657	770.8599243164065	833.1555175781252	-538.4416503906251	324.1230468750001	1213.71875	-124.1775741577149	364.3338012695313	1367.206787109375	-131.0735015869141	409.6264648437501	1368.857543945313	-47.1244125366211	450.011444091797	1364.414184570313	-19.1544246673584	354.2539978027344	1070.04052734375	38.73535537719727	341.9178161621094	1056.8798828125	-51.50501251220705	308.2835998535157	1036.256713867188	5.019739151000977	405.1548461914064	806.369323730469	38.82543182373048	346.4153747558594	823.4713134765627	87.88359832763673	400.9624328613282	703.4137573242189	67.77120971679689	314.2540588378907	752.4491577148439	99.71963500976565	
66	0.65	557.5361938476564	952.2039184570315	-368.6053466796876	367.0850219726563	958.436950683594	-279.0608520507813	366.3171691894532	951.1563110351565	-180.5838623046875	557.5750122070314	948.280456542969	-114.4995040893555	471.2754211425782	877.9248046875002	-439.4105224609376	382.9459533691407	465.2148742675782	-424.2319641113282	382.6095275878907	460.8758850097657	-287.9389648437501	331.0738830566407	419.3987121582032	-420.5812377929689	380.3078918457032	377.0120544433594	-364.8920288085938	117.3490371704102	132.87451171875	-383.0016174316407	142.9139556884766	133.9710540771485	-292.6855773925782	40.94285583496094	115.2024307250977	-318.4003295898438	217.9557647705079	13.76585960388184	-298.2530822753907	227.0172424316407	32.39270019531251	-358.4132995605469	181.1336212158203	29.01598930358887	-413.8406982421876	511.1521301269532	856.0236816406252	-53.49881744384767	666.1501464843751	471.5269775390626	-69.03134155273439	695.2909545898439	466.8272094726564	-198.2796936035157	663.9035034179689	414.8605346679689	-69.05732727050783	740.5144042968751	417.6034240722657	-111.6858062744141	700.6630859375001	65.16761016845705	-102.112533569336	748.3233032226564	88.1390838623047	-183.1366882324219	668.6431884765626	17.17942047119141	-173.1448516845703	877.2896728515627	28.57127380371094	-153.8589935302735	871.4162597656252	50.36277389526369	-99.3068771362305	811.137878417969	23.28528785705567	-47.71735763549805	442.646697998047	1445.942626953125	-226.1107482910157	349.6716613769532	1196.971557617188	-237.1657257080079	602.8580932617189	1138.363403320313	-220.9025115966797	558.5032348632814	1346.116088867188	-218.1064605712891	359.2977600097657	1226.948120117188	-354.1127929687501	386.9058837890626	1380.072021484375	-321.1624145507813	450.2889404296876	1385.344360351563	-407.3542480468751	507.7131652832032	1378.195434570313	-427.9800109863282	556.2420654296876	1083.523193359375	-517.1947631835939	518.2366333007814	1047.320678710938	-447.8101501464845	540.1454467773439	1033.490112304688	-515.3196411132814	765.1178588867189	927.640319824219	-463.4617309570314	732.5536499023439	902.6235351562502	-529.9100341796876	849.795349121094	875.4307250976565	-466.2925720214845	782.5140380859377	833.9488525390627	-536.2703857421876	336.9935302734376	1214.231811523438	-121.96728515625	377.2682495117188	1367.668823242188	-128.2872924804688	421.8662719726564	1369.219116210938	-44.14524459838868	462.6318664550782	1364.672729492188	-16.04760169982911	369.2533569335938	1069.323974609375	41.25099182128907	356.4348144531251	1056.43310546875	-48.94423675537111	323.3242492675782	1035.412231445313	7.68210554122925	421.4223632812501	805.865173339844	39.27603912353516	363.5438232421876	822.6452636718752	89.52144622802736	417.5040283203126	702.6925659179689	67.4842987060547	331.7810058593751	751.6173095703126	101.7091522216797	
67	0.66	571.7912597656251	952.9224243164065	-365.3565063476563	380.9936828613282	959.1465454101565	-277.0863952636719	380.3198852539063	952.4632568359377	-178.3622436523438	571.5018310546876	950.6401977539065	-111.409912109375	486.4254760742189	877.6085205078127	-436.607879638672	402.7153930664064	464.2817993164064	-424.4945373535157	404.0415039062501	458.4854125976564	-288.3329467773438	349.7512817382813	419.4579162597657	-420.5581054687501	398.8775329589845	375.6649475097657	-366.2242736816407	127.045639038086	140.8970947265625	-382.1745605468751	153.6604919433594	139.7584228515625	-292.2814025878907	51.20693588256837	127.828857421875	-316.4046936035157	217.9744567871094	14.08216762542725	-297.7437133789063	227.9788055419922	32.64262390136719	-357.5755310058594	183.5260314941407	32.86173248291016	-412.6289367675782	524.9318847656251	857.9139404296877	-50.24603271484376	678.6475830078126	472.2344665527345	-66.59282684326173	707.9870605468751	467.988494873047	-195.8314514160157	675.9925537109376	415.7486877441407	-66.75769805908205	752.2775878906251	417.0518798828126	-109.7562103271485	702.2133789062501	65.14247894287111	-101.9117431640625	749.9911499023439	87.00181579589845	-183.2868804931641	668.2612304687501	18.04658126831055	-172.8938598632813	877.899353027344	23.79350852966309	-153.6600494384766	873.2528076171877	46.02863693237305	-98.60611724853518	811.3330688476565	20.96995162963868	-46.53404235839844	455.7193603515626	1447.132934570313	-222.9145965576172	363.2601928710938	1197.889404296875	-234.9730987548829	616.6668090820314	1140.018310546875	-217.804428100586	571.7741088867189	1347.605590820313	-214.7663269042969	373.4101562500001	1228.41552734375	-352.2522888183594	400.4512939453126	1381.419311523438	-318.4622802734376	464.1618041992189	1387.15185546875	-404.3200988769532	521.6966552734376	1380.051513671875	-424.748748779297	567.3021240234376	1084.656616210938	-513.5510253906251	530.1267089843751	1048.99853515625	-443.1325073242189	551.1564941406251	1034.579956054688	-511.1250305175782	776.871765136719	928.7454223632815	-461.6948242187501	743.2108764648439	903.031188964844	-527.3186645507814	861.8074951171877	876.975769042969	-465.7565002441407	793.3232421875002	834.4871826171877	-533.9366455078126	349.9616088867188	1214.970825195313	-119.7405395507813	390.1508178710939	1368.35986328125	-125.5627746582032	434.1343994140626	1369.883056640625	-41.26705551147462	475.2361450195314	1365.265747070313	-13.03512573242188	384.4739685058595	1068.891479492188	43.76697540283204	371.1161804199219	1056.28564453125	-46.37664413452149	338.6037292480469	1034.773315429688	10.37380027770996	438.4111938476564	805.791442871094	39.61489868164063	381.3669128417969	822.0650634765627	91.00170135498048	435.1064758300782	702.4099731445314	67.05285644531251	350.2161254882813	750.8995361328126	103.4783020019532	
